<svg width="24" height="24" viewBox="0 0 24 24" fill="none" xmlns="http://www.w3.org/2000/svg">
<rect width="24" height="24" rx="12" fill="#D9D9D9"/>
<path d="M16.5992 16.4327H7.40082C7.27797 16.4327 7.16341 16.3825 7.08655 16.2951C7.01975 16.2193 6.99019 16.1232 7.00287 16.0244C7.10171 15.2544 7.37223 14.5432 7.77243 13.9267C8.61184 12.6338 10.4584 13.1653 12 13.1653V13.1653V13.1653C13.5416 13.1653 15.3882 12.6336 16.2276 13.9266C16.6279 14.5431 16.8984 15.2544 16.9971 16.0244C17.0098 16.1232 16.9801 16.2195 16.9135 16.2951C16.8366 16.3825 16.722 16.4327 16.5992 16.4327Z" fill="#9F9F9F"/>
<path d="M14.0727 11.8337C14.019 11.89 13.963 11.9436 13.905 11.9955C13.3982 12.4489 12.7317 12.727 12 12.727C11.2683 12.727 10.6019 12.4487 10.0951 11.9955C10.0371 11.9436 9.98097 11.89 9.92734 11.8337C9.8739 11.7774 9.82176 11.7198 9.77271 11.6594C9.37565 11.1677 9.13651 10.5434 9.13651 9.86355C9.13651 8.28448 10.4212 7 12.0001 7C13.5789 7 14.8635 8.28468 14.8635 9.86351C14.8635 10.5433 14.6244 11.1677 14.2273 11.6594C14.1785 11.7198 14.1264 11.7772 14.0727 11.8337Z" fill="#9F9F9F"/>
</svg>
