<svg id="ic_location" xmlns="http://www.w3.org/2000/svg" xmlns:xlink="http://www.w3.org/1999/xlink" width="16" height="16" viewBox="0 0 16 16">
  <defs>
    <clipPath id="clip-path">
      <rect id="사각형_361" data-name="사각형 361" width="9.003" height="13.002" transform="translate(0 0)" fill="none"/>
    </clipPath>
  </defs>
  <path id="패스_204" data-name="패스 204" d="M0,0H16V16H0Z" fill="none"/>
  <g id="그룹_573" data-name="그룹 573" transform="translate(3.499 1.5)">
    <g id="그룹_572" data-name="그룹 572" clip-path="url(#clip-path)">
      <path id="패스_250" data-name="패스 250" d="M4.5.5a4,4,0,0,0-4,4,3.891,3.891,0,0,0,.025.434C.771,9.177,4.494,12.494,4.5,12.5h0c.008-.007,3.735-3.328,3.977-7.573A3.991,3.991,0,0,0,4.5.5Zm0,6a2,2,0,1,1,2-2A2,2,0,0,1,4.5,6.5Z" fill="none" stroke="#231815" stroke-linecap="round" stroke-linejoin="round" stroke-width="1"/>
    </g>
  </g>
</svg>
