<svg xmlns="http://www.w3.org/2000/svg" width="24" height="24" viewBox="0 0 24 24">
  <g id="ic_question" transform="translate(-414 -186)">
    <g id="타원_34" data-name="타원 34" transform="translate(417 189)" fill="none" stroke="#4864ff" stroke-width="1">
      <circle cx="9" cy="9" r="9" stroke="none"/>
      <circle cx="9" cy="9" r="8.5" fill="none"/>
    </g>
    <rect id="사각형_310" data-name="사각형 310" width="24" height="24" transform="translate(414 186)" fill="none" opacity="0.2"/>
    <path id="패스_263" data-name="패스 263" d="M9.013,10.536a.753.753,0,1,1-.753.753A.753.753,0,0,1,9.013,10.536ZM9.013,2a3.013,3.013,0,0,1,3.013,3.013,2.879,2.879,0,0,1-1.343,2.472c-.968.822-1.168,1.192-1.168,2.047h-1a3.225,3.225,0,0,1,1.522-2.812c.762-.647.989-.987.989-1.707A2.008,2.008,0,0,0,7,5.013v.5H6v-.5A3.013,3.013,0,0,1,9.013,2Z" transform="translate(416.987 190.979)" fill="#4864ff"/>
  </g>
</svg>
